<svg xmlns="http://www.w3.org/2000/svg" width="40" height="40" viewBox="0 0 40 40">
  <g id="icon-Group" transform="translate(-705 14778)">
    <rect id="사각형_22181" data-name="사각형 22181" width="40" height="40" transform="translate(705 -14778)" fill="#ffbfbf" opacity="0"/>
    <g id="그룹_45332" data-name="그룹 45332" transform="translate(709 -14769.311)">
      <path id="패스_76847" data-name="패스 76847" d="M20.612,7.462a4.594,4.594,0,1,1-4.595-4.567,4.581,4.581,0,0,1,4.595,4.567" fill="#192547"/>
      <path id="패스_76848" data-name="패스 76848" d="M18.44,12.9a1.29,1.29,0,0,1-1.081.668H14.675a1.291,1.291,0,0,1-1.081-.668,8.887,8.887,0,0,0-6.653,8.075,1.45,1.45,0,0,0,1.242,1.632c.035,0,.07.008.105.01H23.746A1.449,1.449,0,0,0,25.1,21.083c0-.035-.006-.07-.011-.1-.4-4.073-3.132-7.343-6.652-8.075" fill="#192547"/>
      <path id="패스_76849" data-name="패스 76849" d="M10.495,10.842c-.021,0-.042.006-.064.007H7.747a1.291,1.291,0,0,1-1.081-.668A8.884,8.884,0,0,0,.014,18.256a1.448,1.448,0,0,0,1.241,1.632c.035,0,.07.008.105.01H5.254a11.113,11.113,0,0,1,6.054-8,6.505,6.505,0,0,1-.813-1.054" fill="#192547"/>
      <path id="패스_76850" data-name="패스 76850" d="M9.527,7.462A6.435,6.435,0,0,1,12.7,1.922a4.581,4.581,0,1,0-3.61,7.384,4.675,4.675,0,0,0,.694-.057,6.39,6.39,0,0,1-.258-1.787" fill="#192547"/>
      <path id="패스_76851" data-name="패스 76851" d="M27.5,4.567a4.594,4.594,0,0,0-8.282-2.713,6.632,6.632,0,0,1,.626.406c.045.033.089.065.133.1.089.068.177.138.262.21.038.033.075.069.113.1q.208.186.4.391c.053.055.1.111.155.169s.124.143.184.217c.074.093.145.189.215.286s.119.173.176.261.117.186.171.281c.037.064.074.129.109.2.078.148.152.3.219.452.017.04.031.081.047.12.055.135.1.271.151.41.018.055.036.11.052.166.053.174.1.351.138.532,0,.017,0,.034.009.051.034.171.06.346.08.522.006.05.011.1.016.151.017.193.029.388.029.586h0c0,.184-.011.365-.028.545q-.009.119-.024.234c-.009.073-.021.144-.033.216a6.3,6.3,0,0,1-.131.631,4.642,4.642,0,0,0,.617.046A4.581,4.581,0,0,0,27.5,4.567Z" fill="#bdd602"/>
      <path id="패스_76852" data-name="패스 76852" d="M31.986,18.084c-.4-4.073-3.133-7.343-6.652-8.075a1.291,1.291,0,0,1-1.081.668H21.642a6.467,6.467,0,0,1-.829,1.127,11.16,11.16,0,0,1,5.87,7.923H30.64A1.451,1.451,0,0,0,32,18.188c0-.035-.006-.069-.011-.1" fill="#bdd602"/>
    </g>
  </g>
</svg>
