<svg xmlns="http://www.w3.org/2000/svg" xmlns:xlink="http://www.w3.org/1999/xlink" width="40" height="40" viewBox="0 0 40 40">
  <defs>
    <clipPath id="clip-path">
      <rect id="사각형_22553" data-name="사각형 22553" width="32" height="20.911" transform="translate(0 0)" fill="none"/>
    </clipPath>
  </defs>
  <g id="icon-BoardPerson" transform="translate(-640 14778)">
    <rect id="사각형_22180" data-name="사각형 22180" width="40" height="40" transform="translate(640 -14778)" fill="#ffbfbf" opacity="0"/>
    <g id="그룹_45957" data-name="그룹 45957" transform="translate(644 -14768.455)">
      <g id="그룹_45956" data-name="그룹 45956" clip-path="url(#clip-path)">
        <path id="패스_78528" data-name="패스 78528" d="M12.158,4.062A4.085,4.085,0,1,1,8.049,0h.023a4.07,4.07,0,0,1,4.086,4.053v.009" fill="#192547"/>
        <path id="패스_78529" data-name="패스 78529" d="M28.627,4.062A4.086,4.086,0,1,1,24.518,0h.022a4.07,4.07,0,0,1,4.086,4.053v.009" fill="#bed600"/>
        <path id="패스_78530" data-name="패스 78530" d="M17.082,16.9v2.811a1.2,1.2,0,0,0,1.2,1.2H30.8a1.2,1.2,0,0,0,1.2-1.2V16.9h-.006a.087.087,0,0,0,0-.036.248.248,0,0,0-.01-.085c0-3.141-1.76-6.355-6.233-7.3a3.262,3.262,0,0,1-.215,4.027c-1,1.041-3.378,1.258-4.2,1.361-.957.121-4.242.37-4.242.37l-.012,1.542Z" fill="#bed600"/>
        <path id="패스_78531" data-name="패스 78531" d="M25.413,10.84a2.263,2.263,0,0,0-2.7-1.71A24.276,24.276,0,0,1,11.5,9.313,6.578,6.578,0,0,0,10.227,8.9a1.146,1.146,0,0,1-.961.6H6.879A1.146,1.146,0,0,1,5.918,8.9,7.9,7.9,0,0,0,0,16.08q0,.066.009.132H0v3.4a1.3,1.3,0,0,0,1.3,1.3H14.852a1.3,1.3,0,0,0,1.3-1.3v-3.4h-.007c0-.013,0-.025,0-.039a.639.639,0,0,0-.01-.1,9.117,9.117,0,0,0-.356-1.713c.2,0,.387.013.6.013a33.4,33.4,0,0,0,7.321-.836,2.263,2.263,0,0,0,1.71-2.7" fill="#192547"/>
      </g>
    </g>
  </g>
</svg>
