<svg xmlns="http://www.w3.org/2000/svg" width="40" height="40" viewBox="0 0 40 40">
  <g id="icon-JiniPet" transform="translate(-825 14778)">
    <rect id="사각형_22183" data-name="사각형 22183" width="40" height="40" transform="translate(825 -14778)" fill="#ffbfbf" opacity="0"/>
    <g id="그룹_45955" data-name="그룹 45955" transform="translate(832.699 -14770.166)">
      <path id="패스_78522" data-name="패스 78522" d="M11.089,2.884A2.883,2.883,0,1,1,8.2,0a2.884,2.884,0,0,1,2.884,2.884" fill="#192547"/>
      <path id="패스_78523" data-name="패스 78523" d="M5.767,9.052A2.884,2.884,0,1,1,2.883,6.168,2.884,2.884,0,0,1,5.767,9.052" fill="#192547"/>
      <path id="패스_78524" data-name="패스 78524" d="M13.469,2.884A2.884,2.884,0,1,0,16.353,0a2.884,2.884,0,0,0-2.884,2.884" fill="#192547"/>
      <path id="패스_78525" data-name="패스 78525" d="M18.835,9.052a2.884,2.884,0,1,0,2.884-2.884,2.884,2.884,0,0,0-2.884,2.884" fill="#192547"/>
      <path id="패스_78526" data-name="패스 78526" d="M20.464,14.927l-.012-.016a9.7,9.7,0,0,1-2.964-4.486l-.009-.028A5.41,5.41,0,0,0,7.1,10.167l-.006.027a8.9,8.9,0,0,1-3.3,4.683l-.033.023a5.365,5.365,0,0,0-1.792,3.99,5.445,5.445,0,0,0,5.444,5.444c2.01,0,2.651-.559,4.688-.559s2.679.559,4.689.559a5.444,5.444,0,0,0,5.443-5.444,5.356,5.356,0,0,0-1.765-3.963" fill="#192547"/>
      <path id="패스_78527" data-name="패스 78527" d="M17.445,18.554A1.673,1.673,0,1,0,14.6,17.26h-5A1.672,1.672,0,1,0,6.75,18.554,1.673,1.673,0,1,0,9.586,19.94h5.022a1.672,1.672,0,1,0,2.837-1.386" fill="#bed600"/>
    </g>
  </g>
</svg>
