<svg xmlns="http://www.w3.org/2000/svg" xmlns:xlink="http://www.w3.org/1999/xlink" width="70" height="70" viewBox="0 0 70 70">
  <defs>
    <clipPath id="clip-path">
      <rect id="사각형_22563" data-name="사각형 22563" width="67.055" height="43.182" transform="translate(0 0)" fill="none"/>
    </clipPath>
  </defs>
  <g id="icon-Ticket-70" transform="translate(-872 15420)">
    <rect id="사각형_22179" data-name="사각형 22179" width="70" height="70" transform="translate(872 -15420)" fill="#ffdede" opacity="0"/>
    <g id="그룹_45959" data-name="그룹 45959" transform="translate(873.473 -15407.002)">
      <g id="그룹_45958" data-name="그룹 45958" clip-path="url(#clip-path)">
        <path id="패스_78532" data-name="패스 78532" d="M0,13.9V39.991a3.191,3.191,0,0,0,3.191,3.191h45.3a3.894,3.894,0,1,1,7.787,0h7.589a3.191,3.191,0,0,0,3.191-3.191V13.9a3.191,3.191,0,0,0-3.191-3.191H3.191A3.191,3.191,0,0,0,0,13.9" fill="#192547"/>
        <path id="패스_78533" data-name="패스 78533" d="M23.856,25.088l-.4-.43a.453.453,0,0,0-.183-.126l-2.387.189-3.191-3.776,5.667-2.759a.392.392,0,0,0,.107-.069.368.368,0,0,0,.021-.52l-.372-.4a.366.366,0,0,0-.312-.114l-7.262,1.18c-.031,0-.054.026-.083.037l-1.54-1.823c-.926-1.089-2.418-1.594-2.936-1.111s-.118,2.006.9,3.008l1.788,1.738-1.652,7.028a.362.362,0,0,0,.091.318l.373.4a.368.368,0,0,0,.52.015.377.377,0,0,0,.076-.1l3.042-5.279,3.522,3.423L19.3,28.239a.448.448,0,0,0,.113.191l.4.431c.127.137.275.176.287.077l1.33-2.4,2.486-1.159c.1,0,.07-.155-.057-.292" fill="#fff"/>
        <path id="패스_78534" data-name="패스 78534" d="M52.381,37.851a.5.5,0,0,1-.5-.5v-1a.5.5,0,0,1,1,0v1a.5.5,0,0,1-.5.5m0-3.3a.5.5,0,0,1-.5-.5v-1a.5.5,0,0,1,1,0v1a.5.5,0,0,1-.5.5m0-3.3a.5.5,0,0,1-.5-.5v-1a.5.5,0,0,1,1,0v1a.5.5,0,0,1-.5.5m0-3.3a.5.5,0,0,1-.5-.5v-1a.5.5,0,0,1,1,0v1a.5.5,0,0,1-.5.5m0-3.3a.5.5,0,0,1-.5-.5v-1a.5.5,0,0,1,1,0v1a.5.5,0,0,1-.5.5m0-3.3a.5.5,0,0,1-.5-.5v-1a.5.5,0,0,1,1,0v1a.5.5,0,0,1-.5.5" fill="#fff"/>
        <line id="선_487" data-name="선 487" x1="12.225" transform="translate(34.039 30.741)" fill="none" stroke="#fff" stroke-linecap="round" stroke-miterlimit="10" stroke-width="1"/>
        <line id="선_488" data-name="선 488" x1="25.414" transform="translate(20.85 36.542)" fill="none" stroke="#fff" stroke-linecap="round" stroke-miterlimit="10" stroke-width="1"/>
        <path id="패스_78535" data-name="패스 78535" d="M54.255.006a9.322,9.322,0,1,1-8.991,9.642A9.323,9.323,0,0,1,54.255.006" fill="#bed600"/>
        <path id="패스_78536" data-name="패스 78536" d="M60.188,6.3a.362.362,0,0,0-.215-.129c-.234-.05-.538.1-.954.465l-.3.257c-.452.386-1.135.972-1.982,1.778L53.99,11.292,51.432,8.576a.85.85,0,0,0-1.2-.047l-.047.046a.947.947,0,0,0,0,1.278l3.016,3.2a.856.856,0,0,0,.624.275c.249,0,.4-.126.762-.487,1.735-1.722,3.784-3.97,3.811-4C60.453,6.68,60.356,6.48,60.188,6.3" fill="#192547"/>
      </g>
    </g>
  </g>
</svg>
