<svg xmlns="http://www.w3.org/2000/svg" width="70" height="70" viewBox="0 0 70 70">
  <g id="icon-MyReservation-70" transform="translate(-629 15422)">
    <rect id="사각형_22179" data-name="사각형 22179" width="70" height="70" transform="translate(629 -15422)" fill="#ffdede" opacity="0"/>
    <g id="그룹_45951" data-name="그룹 45951" transform="translate(629.75 -15416.041)">
      <path id="패스_78504" data-name="패스 78504" d="M35.38,11.808A11.877,11.877,0,1,1,23.5,0,11.843,11.843,0,0,1,35.38,11.808" fill="#192547"/>
      <path id="패스_78505" data-name="패스 78505" d="M29.765,25.877a3.337,3.337,0,0,1-2.8,1.727H20.031a3.331,3.331,0,0,1-2.794-1.727c-9.1,1.891-16.17,10.346-17.2,20.876a3.746,3.746,0,0,0,3.21,4.22c.09.012.181.022.271.027H43.483a3.748,3.748,0,0,0,3.509-3.977c-.006-.09-.015-.18-.028-.27-1.038-10.53-8.1-18.985-17.2-20.876" fill="#192547"/>
      <path id="패스_78506" data-name="패스 78506" d="M65.406,58.079H40.594A3.094,3.094,0,0,1,37.5,54.985V36.015a3.094,3.094,0,0,1,3.094-3.094H65.406A3.094,3.094,0,0,1,68.5,36.015v18.97a3.094,3.094,0,0,1-3.094,3.094" fill="#bed600"/>
      <path id="패스_78507" data-name="패스 78507" d="M45.537,35.579h-.074a.963.963,0,0,1-.963-.963V31.225a.963.963,0,0,1,.963-.963h.074a.963.963,0,0,1,.963.963v3.391a.963.963,0,0,1-.963.963" fill="#192547"/>
      <path id="패스_78508" data-name="패스 78508" d="M60.537,35.579h-.074a.963.963,0,0,1-.963-.963V31.225a.963.963,0,0,1,.963-.963h.074a.963.963,0,0,1,.963.963v3.391a.963.963,0,0,1-.963.963" fill="#192547"/>
      <rect id="사각형_22552" data-name="사각형 22552" width="31" height="1" transform="translate(37.5 39.043)" fill="#192547"/>
      <path id="패스_78509" data-name="패스 78509" d="M48.484,46.843h-1a.5.5,0,0,1-.5-.5v-1a.5.5,0,0,1,.5-.5h1a.5.5,0,0,1,.5.5v1a.5.5,0,0,1-.5.5" fill="#192547"/>
      <path id="패스_78510" data-name="패스 78510" d="M53.448,46.843h-1a.5.5,0,0,1-.5-.5v-1a.5.5,0,0,1,.5-.5h1a.5.5,0,0,1,.5.5v1a.5.5,0,0,1-.5.5" fill="#192547"/>
      <path id="패스_78511" data-name="패스 78511" d="M58.412,46.843h-1a.5.5,0,0,1-.5-.5v-1a.5.5,0,0,1,.5-.5h1a.5.5,0,0,1,.5.5v1a.5.5,0,0,1-.5.5" fill="#192547"/>
      <path id="패스_78512" data-name="패스 78512" d="M63.376,46.843h-1a.5.5,0,0,1-.5-.5v-1a.5.5,0,0,1,.5-.5h1a.5.5,0,0,1,.5.5v1a.5.5,0,0,1-.5.5" fill="#192547"/>
      <path id="패스_78513" data-name="패스 78513" d="M43.52,52.717h-1a.5.5,0,0,1-.5-.5v-1a.5.5,0,0,1,.5-.5h1a.5.5,0,0,1,.5.5v1a.5.5,0,0,1-.5.5" fill="#192547"/>
      <path id="패스_78514" data-name="패스 78514" d="M48.484,52.717h-1a.5.5,0,0,1-.5-.5v-1a.5.5,0,0,1,.5-.5h1a.5.5,0,0,1,.5.5v1a.5.5,0,0,1-.5.5" fill="#192547"/>
      <path id="패스_78515" data-name="패스 78515" d="M53.448,52.717h-1a.5.5,0,0,1-.5-.5v-1a.5.5,0,0,1,.5-.5h1a.5.5,0,0,1,.5.5v1a.5.5,0,0,1-.5.5" fill="#192547"/>
      <path id="패스_78516" data-name="패스 78516" d="M58.412,52.717h-1a.5.5,0,0,1-.5-.5v-1a.5.5,0,0,1,.5-.5h1a.5.5,0,0,1,.5.5v1a.5.5,0,0,1-.5.5" fill="#192547"/>
      <path id="패스_78517" data-name="패스 78517" d="M63.376,52.717h-1a.5.5,0,0,1-.5-.5v-1a.5.5,0,0,1,.5-.5h1a.5.5,0,0,1,.5.5v1a.5.5,0,0,1-.5.5" fill="#192547"/>
    </g>
  </g>
</svg>
